<svg width="28" height="20" viewBox="0 0 28 20" fill="none" xmlns="http://www.w3.org/2000/svg">
<path d="M27.1111 1.09003H1V19H27.1111V1.09003Z" stroke="black"/>
<path d="M27.1111 17.56H1V19H27.1111V17.56Z" fill="#BF0A30"/>
<path d="M27.1111 16.1201H1V17.5601H27.1111V16.1201Z" fill="white"/>
<path d="M27.1111 14.6801H1V16.1201H27.1111V14.6801Z" fill="#BF0A30"/>
<path d="M27.1111 13.2401H1V14.6801H27.1111V13.2401Z" fill="white"/>
<path d="M27.1111 11.89H1V13.24H27.1111V11.89Z" fill="#BF0A30"/>
<path d="M27.1111 10.54H1V11.89H27.1111V10.54Z" fill="white"/>
<path d="M27.1111 9.19H1V10.54H27.1111V9.19Z" fill="#BF0A30"/>
<path d="M27.1111 7.84003H1V9.19003H27.1111V7.84003Z" fill="white"/>
<path d="M27.1111 6.49005H1V7.84005H27.1111V6.49005Z" fill="#BF0A30"/>
<path d="M27.1111 5.14001H1V6.49002H27.1111V5.14001Z" fill="white"/>
<path d="M27.1111 3.79004H1V5.14004H27.1111V3.79004Z" fill="#BF0A30"/>
<path d="M27.1111 2.44H1V3.79H27.1111V2.44Z" fill="white"/>
<path d="M27.1111 1.09003H1V2.44003H27.1111V1.09003Z" fill="#BF0A30"/>
<path d="M11.472 1.09003H1V10.54H11.472V1.09003Z" fill="#002868"/>
<path fill-rule="evenodd" clip-rule="evenodd" d="M1.43748 9.42538L1.74107 9.38257L1.85695 8.99647L1.98054 9.37808L2.28488 9.40947L2.05767 9.68812L2.12988 10.0936L1.86587 9.88424L1.60616 10.1035L1.6702 9.6954L1.43748 9.42538Z" fill="white"/>
<path fill-rule="evenodd" clip-rule="evenodd" d="M3.15984 9.42538L3.46344 9.38257L3.57932 8.99647L3.70291 9.37808L4.00725 9.40947L3.78003 9.68812L3.85225 10.0936L3.58823 9.88424L3.32852 10.1035L3.39257 9.6954L3.15984 9.42538Z" fill="white"/>
<path fill-rule="evenodd" clip-rule="evenodd" d="M4.9511 9.42538L5.2547 9.38257L5.37058 8.99647L5.49417 9.37808L5.79851 9.40947L5.57129 9.68812L5.64351 10.0936L5.37949 9.88424L5.11978 10.1035L5.18383 9.6954L4.9511 9.42538Z" fill="white"/>
<path fill-rule="evenodd" clip-rule="evenodd" d="M6.67348 9.42538L6.97708 9.38257L7.09296 8.99647L7.21655 9.37808L7.52089 9.40947L7.29368 9.68812L7.36589 10.0936L7.10188 9.88424L6.84217 10.1035L6.90621 9.6954L6.67348 9.42538Z" fill="white"/>
<path fill-rule="evenodd" clip-rule="evenodd" d="M8.39585 9.42538L8.69945 9.38257L8.81532 8.99647L8.93891 9.37808L9.24325 9.40947L9.01604 9.68812L9.08825 10.0936L8.82424 9.88424L8.56453 10.1035L8.62857 9.6954L8.39585 9.42538Z" fill="white"/>
<path fill-rule="evenodd" clip-rule="evenodd" d="M10.1871 9.42538L10.4907 9.38257L10.6066 8.99647L10.7302 9.37808L11.0345 9.40947L10.8073 9.68812L10.8795 10.0936L10.6155 9.88424L10.3558 10.1035L10.4198 9.6954L10.1871 9.42538Z" fill="white"/>
<path fill-rule="evenodd" clip-rule="evenodd" d="M2.33311 8.52536L2.6367 8.48255L2.75258 8.09644L2.87617 8.47805L3.18051 8.50944L2.9533 8.7881L3.02551 9.19361L2.7615 8.98421L2.50179 9.20344L2.56583 8.79537L2.33311 8.52536Z" fill="white"/>
<path fill-rule="evenodd" clip-rule="evenodd" d="M1.43748 7.53537L1.74107 7.49256L1.85695 7.10645L1.98054 7.48806L2.28488 7.51945L2.05767 7.79811L2.12988 8.20362L1.86587 7.99422L1.60616 8.21345L1.6702 7.80538L1.43748 7.53537Z" fill="white"/>
<path fill-rule="evenodd" clip-rule="evenodd" d="M2.33311 6.6354L2.6367 6.59259L2.75258 6.20649L2.87617 6.5881L3.18051 6.61949L2.9533 6.89814L3.02551 7.30365L2.7615 7.09426L2.50179 7.31349L2.56583 6.90542L2.33311 6.6354Z" fill="white"/>
<path fill-rule="evenodd" clip-rule="evenodd" d="M1.43748 5.64541L1.74107 5.6026L1.85695 5.2165L1.98054 5.59811L2.28488 5.6295L2.05767 5.90815L2.12988 6.31366L1.86587 6.10427L1.60616 6.3235L1.6702 5.91543L1.43748 5.64541Z" fill="white"/>
<path fill-rule="evenodd" clip-rule="evenodd" d="M2.33311 4.74539L2.6367 4.70258L2.75258 4.31647L2.87617 4.69808L3.18051 4.72948L2.9533 5.00813L3.02551 5.41364L2.7615 5.20425L2.50179 5.42347L2.56583 5.01541L2.33311 4.74539Z" fill="white"/>
<path fill-rule="evenodd" clip-rule="evenodd" d="M1.43748 3.7554L1.74107 3.71259L1.85695 3.32648L1.98054 3.70809L2.28488 3.73949L2.05767 4.01814L2.12988 4.42365L1.86587 4.21426L1.60616 4.43348L1.6702 4.02542L1.43748 3.7554Z" fill="white"/>
<path fill-rule="evenodd" clip-rule="evenodd" d="M2.33311 2.85537L2.6367 2.81256L2.75258 2.42646L2.87617 2.80807L3.18051 2.83946L2.9533 3.11812L3.02551 3.52362L2.7615 3.31423L2.50179 3.53346L2.56583 3.12539L2.33311 2.85537Z" fill="white"/>
<path fill-rule="evenodd" clip-rule="evenodd" d="M1.43748 1.86538L1.74107 1.82258L1.85695 1.43647L1.98054 1.81808L2.28488 1.84947L2.05767 2.12813L2.12988 2.53363L1.86587 2.32424L1.60616 2.54347L1.6702 2.1354L1.43748 1.86538Z" fill="white"/>
<path fill-rule="evenodd" clip-rule="evenodd" d="M4.05547 8.52536L4.35907 8.48255L4.47495 8.09644L4.59854 8.47805L4.90288 8.50944L4.67566 8.7881L4.74788 9.19361L4.48386 8.98421L4.22415 9.20344L4.2882 8.79537L4.05547 8.52536Z" fill="white"/>
<path fill-rule="evenodd" clip-rule="evenodd" d="M3.15984 7.53537L3.46344 7.49256L3.57932 7.10645L3.70291 7.48806L4.00725 7.51945L3.78003 7.79811L3.85225 8.20362L3.58823 7.99422L3.32852 8.21345L3.39257 7.80538L3.15984 7.53537Z" fill="white"/>
<path fill-rule="evenodd" clip-rule="evenodd" d="M4.05547 6.6354L4.35907 6.59259L4.47495 6.20649L4.59854 6.5881L4.90288 6.61949L4.67566 6.89814L4.74788 7.30365L4.48386 7.09426L4.22415 7.31349L4.2882 6.90542L4.05547 6.6354Z" fill="white"/>
<path fill-rule="evenodd" clip-rule="evenodd" d="M3.15984 5.64541L3.46344 5.6026L3.57932 5.2165L3.70291 5.59811L4.00725 5.6295L3.78003 5.90815L3.85225 6.31366L3.58823 6.10427L3.32852 6.3235L3.39257 5.91543L3.15984 5.64541Z" fill="white"/>
<path fill-rule="evenodd" clip-rule="evenodd" d="M4.05547 4.74539L4.35907 4.70258L4.47495 4.31647L4.59854 4.69808L4.90288 4.72948L4.67566 5.00813L4.74788 5.41364L4.48386 5.20425L4.22415 5.42347L4.2882 5.01541L4.05547 4.74539Z" fill="white"/>
<path fill-rule="evenodd" clip-rule="evenodd" d="M3.15984 3.7554L3.46344 3.71259L3.57932 3.32648L3.70291 3.70809L4.00725 3.73949L3.78003 4.01814L3.85225 4.42365L3.58823 4.21426L3.32852 4.43348L3.39257 4.02542L3.15984 3.7554Z" fill="white"/>
<path fill-rule="evenodd" clip-rule="evenodd" d="M4.05547 2.85537L4.35907 2.81256L4.47495 2.42646L4.59854 2.80807L4.90288 2.83946L4.67566 3.11812L4.74788 3.52362L4.48386 3.31423L4.22415 3.53346L4.2882 3.12539L4.05547 2.85537Z" fill="white"/>
<path fill-rule="evenodd" clip-rule="evenodd" d="M3.15984 1.86538L3.46344 1.82258L3.57932 1.43647L3.70291 1.81808L4.00725 1.84947L3.78003 2.12813L3.85225 2.53363L3.58823 2.32424L3.32852 2.54347L3.39257 2.1354L3.15984 1.86538Z" fill="white"/>
<path fill-rule="evenodd" clip-rule="evenodd" d="M5.77785 8.52536L6.08145 8.48255L6.19733 8.09644L6.32092 8.47805L6.62526 8.50944L6.39804 8.7881L6.47026 9.19361L6.20624 8.98421L5.94653 9.20344L6.01058 8.79537L5.77785 8.52536Z" fill="white"/>
<path fill-rule="evenodd" clip-rule="evenodd" d="M4.9511 7.53537L5.2547 7.49256L5.37058 7.10645L5.49417 7.48806L5.79851 7.51945L5.57129 7.79811L5.64351 8.20362L5.37949 7.99422L5.11978 8.21345L5.18383 7.80538L4.9511 7.53537Z" fill="white"/>
<path fill-rule="evenodd" clip-rule="evenodd" d="M8.39585 7.53537L8.69945 7.49256L8.81532 7.10645L8.93891 7.48806L9.24325 7.51945L9.01604 7.79811L9.08825 8.20362L8.82424 7.99422L8.56453 8.21345L8.62857 7.80538L8.39585 7.53537Z" fill="white"/>
<path fill-rule="evenodd" clip-rule="evenodd" d="M6.67348 7.53537L6.97708 7.49256L7.09296 7.10645L7.21655 7.48806L7.52089 7.51945L7.29368 7.79811L7.36589 8.20362L7.10188 7.99422L6.84217 8.21345L6.90621 7.80538L6.67348 7.53537Z" fill="white"/>
<path fill-rule="evenodd" clip-rule="evenodd" d="M9.29148 8.52536L9.59508 8.48255L9.71096 8.09644L9.83454 8.47805L10.1389 8.50944L9.91167 8.7881L9.98388 9.19361L9.71987 8.98421L9.46016 9.20344L9.5242 8.79537L9.29148 8.52536Z" fill="white"/>
<path fill-rule="evenodd" clip-rule="evenodd" d="M7.56911 8.52536L7.87271 8.48255L7.98859 8.09644L8.11217 8.47805L8.41651 8.50944L8.1893 8.7881L8.26151 9.19361L7.9975 8.98421L7.73779 9.20344L7.80184 8.79537L7.56911 8.52536Z" fill="white"/>
<path fill-rule="evenodd" clip-rule="evenodd" d="M4.9511 1.86538L5.2547 1.82258L5.37058 1.43647L5.49417 1.81808L5.79851 1.84947L5.57129 2.12813L5.64351 2.53363L5.37949 2.32424L5.11978 2.54347L5.18383 2.1354L4.9511 1.86538Z" fill="white"/>
<path fill-rule="evenodd" clip-rule="evenodd" d="M5.77785 2.85537L6.08145 2.81256L6.19733 2.42646L6.32092 2.80807L6.62526 2.83946L6.39804 3.11812L6.47026 3.52362L6.20624 3.31423L5.94653 3.53346L6.01058 3.12539L5.77785 2.85537Z" fill="white"/>
<path fill-rule="evenodd" clip-rule="evenodd" d="M4.9511 3.7554L5.2547 3.71259L5.37058 3.32648L5.49417 3.70809L5.79851 3.73949L5.57129 4.01814L5.64351 4.42365L5.37949 4.21426L5.11978 4.43348L5.18383 4.02542L4.9511 3.7554Z" fill="white"/>
<path fill-rule="evenodd" clip-rule="evenodd" d="M5.77785 4.74539L6.08145 4.70258L6.19733 4.31647L6.32092 4.69808L6.62526 4.72948L6.39804 5.00813L6.47026 5.41364L6.20624 5.20425L5.94653 5.42347L6.01058 5.01541L5.77785 4.74539Z" fill="white"/>
<path fill-rule="evenodd" clip-rule="evenodd" d="M4.9511 5.64541L5.2547 5.6026L5.37058 5.2165L5.49417 5.59811L5.79851 5.6295L5.57129 5.90815L5.64351 6.31366L5.37949 6.10427L5.11978 6.3235L5.18383 5.91543L4.9511 5.64541Z" fill="white"/>
<path fill-rule="evenodd" clip-rule="evenodd" d="M5.77785 6.6354L6.08145 6.59259L6.19733 6.20649L6.32092 6.5881L6.62526 6.61949L6.39804 6.89814L6.47026 7.30365L6.20624 7.09426L5.94653 7.31349L6.01058 6.90542L5.77785 6.6354Z" fill="white"/>
<path fill-rule="evenodd" clip-rule="evenodd" d="M10.1871 7.53537L10.4907 7.49256L10.6066 7.10645L10.7302 7.48806L11.0345 7.51945L10.8073 7.79811L10.8795 8.20362L10.6155 7.99422L10.3558 8.21345L10.4198 7.80538L10.1871 7.53537Z" fill="white"/>
<path fill-rule="evenodd" clip-rule="evenodd" d="M6.67348 5.64541L6.97708 5.6026L7.09296 5.2165L7.21655 5.59811L7.52089 5.6295L7.29368 5.90815L7.36589 6.31366L7.10188 6.10427L6.84217 6.3235L6.90621 5.91543L6.67348 5.64541Z" fill="white"/>
<path fill-rule="evenodd" clip-rule="evenodd" d="M6.67348 1.86538L6.97708 1.82258L7.09296 1.43647L7.21655 1.81808L7.52089 1.84947L7.29368 2.12813L7.36589 2.53363L7.10188 2.32424L6.84217 2.54347L6.90621 2.1354L6.67348 1.86538Z" fill="white"/>
<path fill-rule="evenodd" clip-rule="evenodd" d="M6.67348 3.7554L6.97708 3.71259L7.09296 3.32648L7.21655 3.70809L7.52089 3.73949L7.29368 4.01814L7.36589 4.42365L7.10188 4.21426L6.84217 4.43348L6.90621 4.02542L6.67348 3.7554Z" fill="white"/>
<path fill-rule="evenodd" clip-rule="evenodd" d="M9.29148 6.6354L9.59508 6.59259L9.71096 6.20649L9.83454 6.5881L10.1389 6.61949L9.91167 6.89814L9.98388 7.30365L9.71987 7.09426L9.46016 7.31349L9.5242 6.90542L9.29148 6.6354Z" fill="white"/>
<path fill-rule="evenodd" clip-rule="evenodd" d="M7.56911 6.6354L7.87271 6.59259L7.98859 6.20649L8.11217 6.5881L8.41651 6.61949L8.1893 6.89814L8.26151 7.30365L7.9975 7.09426L7.73779 7.31349L7.80184 6.90542L7.56911 6.6354Z" fill="white"/>
<path fill-rule="evenodd" clip-rule="evenodd" d="M7.56911 2.85537L7.87271 2.81256L7.98859 2.42646L8.11217 2.80807L8.41651 2.83946L8.1893 3.11812L8.26151 3.52362L7.9975 3.31423L7.73779 3.53346L7.80184 3.12539L7.56911 2.85537Z" fill="white"/>
<path fill-rule="evenodd" clip-rule="evenodd" d="M7.56911 4.74539L7.87271 4.70258L7.98859 4.31647L8.11217 4.69808L8.41651 4.72948L8.1893 5.00813L8.26151 5.41364L7.9975 5.20425L7.73779 5.42347L7.80184 5.01541L7.56911 4.74539Z" fill="white"/>
<path fill-rule="evenodd" clip-rule="evenodd" d="M10.1871 5.64541L10.4907 5.6026L10.6066 5.2165L10.7302 5.59811L11.0345 5.6295L10.8073 5.90815L10.8795 6.31366L10.6155 6.10427L10.3558 6.3235L10.4198 5.91543L10.1871 5.64541Z" fill="white"/>
<path fill-rule="evenodd" clip-rule="evenodd" d="M8.39585 5.64541L8.69945 5.6026L8.81533 5.2165L8.93891 5.59811L9.24325 5.6295L9.01604 5.90815L9.08825 6.31366L8.82424 6.10427L8.56453 6.3235L8.62857 5.91543L8.39585 5.64541Z" fill="white"/>
<path fill-rule="evenodd" clip-rule="evenodd" d="M8.39585 1.86538L8.69945 1.82258L8.81532 1.43647L8.93891 1.81808L9.24325 1.84947L9.01604 2.12813L9.08825 2.53363L8.82424 2.32424L8.56453 2.54347L8.62857 2.1354L8.39585 1.86538Z" fill="white"/>
<path fill-rule="evenodd" clip-rule="evenodd" d="M8.39585 3.7554L8.69945 3.71259L8.81532 3.32648L8.93891 3.70809L9.24325 3.73949L9.01604 4.01814L9.08825 4.42365L8.82424 4.21426L8.56453 4.43348L8.62857 4.02542L8.39585 3.7554Z" fill="white"/>
<path fill-rule="evenodd" clip-rule="evenodd" d="M10.1871 1.86538L10.4907 1.82258L10.6066 1.43647L10.7302 1.81808L11.0345 1.84947L10.8073 2.12813L10.8795 2.53363L10.6155 2.32424L10.3558 2.54347L10.4198 2.1354L10.1871 1.86538Z" fill="white"/>
<path fill-rule="evenodd" clip-rule="evenodd" d="M9.29148 2.85537L9.59508 2.81256L9.71096 2.42646L9.83454 2.80807L10.1389 2.83946L9.91167 3.11812L9.98388 3.52362L9.71987 3.31423L9.46016 3.53346L9.5242 3.12539L9.29148 2.85537Z" fill="white"/>
<path fill-rule="evenodd" clip-rule="evenodd" d="M10.1871 3.7554L10.4907 3.71259L10.6066 3.32648L10.7302 3.70809L11.0345 3.73949L10.8073 4.01814L10.8795 4.42365L10.6155 4.21426L10.3558 4.43348L10.4198 4.02542L10.1871 3.7554Z" fill="white"/>
<path fill-rule="evenodd" clip-rule="evenodd" d="M9.29148 4.74539L9.59508 4.70258L9.71096 4.31647L9.83454 4.69808L10.1389 4.72948L9.91167 5.00813L9.98388 5.41364L9.71987 5.20425L9.46016 5.42347L9.5242 5.01541L9.29148 4.74539Z" fill="white"/>
</svg>
