<svg width="46" height="20" viewBox="0 0 46 20" fill="none" xmlns="http://www.w3.org/2000/svg"><path d="M27.111 1.09H1V19h26.111V1.09z" stroke="#000"/><path d="M27.111 17.56H1V19h26.111v-1.44z" fill="#BF0A30"/><path d="M27.111 16.12H1v1.44h26.111v-1.44z" fill="#fff"/><path d="M27.111 14.68H1v1.44h26.111v-1.44z" fill="#BF0A30"/><path d="M27.111 13.24H1v1.44h26.111v-1.44z" fill="#fff"/><path d="M27.111 11.89H1v1.35h26.111v-1.35z" fill="#BF0A30"/><path d="M27.111 10.54H1v1.35h26.111v-1.35z" fill="#fff"/><path d="M27.111 9.19H1v1.35h26.111V9.19z" fill="#BF0A30"/><path d="M27.111 7.84H1v1.35h26.111V7.84z" fill="#fff"/><path d="M27.111 6.49H1v1.35h26.111V6.49z" fill="#BF0A30"/><path d="M27.111 5.14H1v1.35h26.111V5.14z" fill="#fff"/><path d="M27.111 3.79H1v1.35h26.111V3.79z" fill="#BF0A30"/><path d="M27.111 2.44H1v1.35h26.111V2.44z" fill="#fff"/><path d="M27.111 1.09H1v1.35h26.111V1.09z" fill="#BF0A30"/><path d="M11.472 1.09H1v9.45h10.472V1.09z" fill="#002868"/><path fill-rule="evenodd" clip-rule="evenodd" d="M1.437 9.425l.304-.042.116-.387.124.382.304.031-.227.28.072.405-.264-.21-.26.22.064-.409-.233-.27zm1.723 0l.303-.042.116-.387.124.382.304.031-.227.28.072.405-.264-.21-.26.22.065-.409-.233-.27zm1.791 0l.304-.042.116-.387.123.382.305.031-.228.28.073.405-.265-.21-.26.22.065-.409-.233-.27zm1.722 0l.304-.042.116-.387.124.382.304.031-.227.28.072.405-.264-.21-.26.22.064-.409-.233-.27zm1.723 0l.303-.042.116-.387.124.382.304.031-.227.28.072.405-.264-.21-.26.22.065-.409-.233-.27zm1.791 0l.304-.042.116-.387.123.382.304.031-.227.28.072.405-.263-.21-.26.22.064-.409-.233-.27zm-7.854-.9l.304-.042.116-.387.123.382.305.031-.228.28.073.405-.264-.21-.26.22.064-.409-.233-.27zm-.896-.99l.304-.042.116-.387.124.382.304.031-.227.28.072.405-.264-.21-.26.22.064-.409-.233-.27zm.896-.9l.304-.042.116-.387.123.382.305.031-.228.28.073.405-.264-.21-.26.22.064-.409-.233-.27zm-.896-.99l.304-.042.116-.386.124.381.304.032-.227.278.072.406-.264-.21-.26.22.064-.409-.233-.27zm.896-.9l.304-.042.116-.387.123.382.305.031-.228.28.073.405-.264-.21-.26.22.064-.409-.233-.27zm-.896-.99l.304-.042.116-.387.124.382.304.031-.227.28.072.405-.264-.21-.26.22.064-.409-.233-.27zm.896-.9l.304-.042.116-.387.123.382.305.031-.228.28.073.405-.264-.21-.26.22.064-.409-.233-.27zm-.896-.99l.304-.042.116-.387.124.382.304.031-.227.28.072.405-.264-.21-.26.22.064-.409-.233-.27zm2.618 6.66l.304-.042.116-.387.124.382.304.031-.227.28.072.405-.264-.21-.26.22.064-.409-.233-.27zm-.895-.99l.303-.042.116-.387.124.382.304.031-.227.28.072.405-.264-.21-.26.22.065-.409-.233-.27zm.895-.9l.304-.042.116-.387.124.382.304.031-.227.28.072.405-.264-.21-.26.22.064-.409-.233-.27zm-.895-.99l.303-.042.116-.386.124.381.304.032-.227.278.072.406-.264-.21-.26.22.065-.409-.233-.27zm.895-.9l.304-.042.116-.387.124.382.304.031-.227.28.072.405-.264-.21-.26.22.064-.409-.233-.27zm-.895-.99l.303-.042.116-.387.124.382.304.031-.227.28.072.405-.264-.21-.26.22.065-.409-.233-.27zm.895-.9l.304-.042.116-.387.124.382.304.031-.227.28.072.405-.264-.21-.26.22.064-.409-.233-.27zm-.895-.99l.303-.042.116-.387.124.382.304.031-.227.28.072.405-.264-.21-.26.22.065-.409-.233-.27zm2.618 6.66l.303-.042.116-.387.124.382.304.031-.227.28.072.405-.264-.21-.26.22.065-.409-.233-.27zm-.827-.99l.304-.042.116-.387.123.382.305.031-.228.28.073.405-.265-.21-.26.22.065-.409-.233-.27zm3.445 0l.303-.042.116-.387.124.382.304.031-.227.28.072.405-.264-.21-.26.22.065-.409-.233-.27zm-1.723 0l.304-.042.116-.387.124.382.304.031-.227.28.072.405-.264-.21-.26.22.064-.409-.233-.27zm2.618.99l.304-.042.116-.387.124.382.304.031-.227.28.072.405-.264-.21-.26.22.064-.409-.233-.27zm-1.721 0l.303-.042.116-.387.123.382.305.031-.228.28.073.405-.265-.21-.26.22.065-.409-.233-.27zm-2.619-6.66l.304-.042.116-.387.123.382.305.031-.228.28.073.405-.265-.21-.26.22.065-.409-.233-.27zm.827.99l.303-.042.116-.387.124.382.304.031-.227.28.072.405-.264-.21-.26.22.065-.409-.233-.27zm-.827.9l.304-.042.116-.387.123.382.305.031-.228.28.073.405-.265-.21-.26.22.065-.409-.233-.27zm.827.99l.303-.042.116-.387.124.382.304.031-.227.28.072.405-.264-.21-.26.22.065-.409-.233-.27zm-.827.9l.304-.042.116-.386.123.381.305.032-.228.278.073.406-.265-.21-.26.22.065-.409-.233-.27zm.827.99l.303-.042.116-.387.124.382.304.031-.227.28.072.405-.264-.21-.26.22.065-.409-.233-.27zm4.409.9l.304-.042.116-.387.123.382.304.031-.227.28.072.405-.263-.21-.26.22.064-.409-.233-.27zm-3.514-1.89l.304-.042.116-.386.124.381.304.032-.227.278.072.406-.264-.21-.26.22.064-.409-.233-.27zm0-3.78l.304-.042.116-.387.124.382.304.031-.227.28.072.405-.264-.21-.26.22.064-.409-.233-.27zm0 1.89l.304-.042.116-.387.124.382.304.031-.227.28.072.405-.264-.21-.26.22.064-.409-.233-.27zm2.618 2.88l.304-.042.116-.387.124.382.304.031-.227.28.072.405-.264-.21-.26.22.064-.409-.233-.27zm-1.721 0l.303-.042.116-.387.123.382.305.031-.228.28.073.405-.265-.21-.26.22.065-.409-.233-.27zm0-3.78l.303-.042.116-.387.123.382.305.031-.228.28.073.405-.265-.21-.26.22.065-.409-.233-.27zm0 1.89l.303-.042.116-.387.123.382.305.031-.228.28.073.405-.265-.21-.26.22.065-.409-.233-.27zm2.617.9l.304-.042.116-.386.123.381.304.032-.227.278.072.406-.263-.21-.26.22.064-.409-.233-.27zm-1.791 0l.303-.042.116-.386.124.381.304.032-.227.278.072.406-.264-.21-.26.22.065-.409-.233-.27zm0-3.78l.303-.042.116-.387.124.382.304.031-.227.28.072.405-.264-.21-.26.22.065-.409-.233-.27zm0 1.89l.303-.042.116-.387.124.382.304.031-.227.28.072.405-.264-.21-.26.22.065-.409-.233-.27zm1.791-1.89l.304-.042.116-.387.123.382.304.031-.227.28.072.405-.263-.21-.26.22.064-.409-.233-.27zm-.896.99l.304-.042.116-.387.124.382.304.031-.227.28.072.405-.264-.21-.26.22.064-.409-.233-.27zm.896.9l.304-.042.116-.387.123.382.304.031-.227.28.072.405-.263-.21-.26.22.064-.409-.233-.27zm-.896.99l.304-.042.116-.387.124.382.304.031-.227.28.072.405-.264-.21-.26.22.064-.409-.233-.27z" fill="#fff"/><path d="M37 8l4 4 4-4" stroke="#212121" stroke-width="2" stroke-linecap="round" stroke-linejoin="round"/></svg>